<svg width="172" height="151" viewBox="0 0 172 151" fill="none" xmlns="http://www.w3.org/2000/svg">
<path d="M163.217 150.983H8.77502C5.79784 150.983 3.04685 149.395 1.5583 146.817C0.0697417 144.238 0.0697616 141.062 1.55835 138.483L78.775 5.15C80.2648 2.57592 83.0134 0.990906 85.9875 0.990906C88.9616 0.990906 91.7103 2.57592 93.2 5.15L170.417 138.483C171.905 141.06 171.905 144.235 170.419 146.813C168.932 149.391 166.184 150.98 163.208 150.983H163.217ZM82.6667 109.317C79.9053 109.317 77.6667 111.555 77.6667 114.317V120.983C77.6667 123.745 79.9053 125.983 82.6667 125.983H85.4417H85.9833H86.525H89.3167C92.0781 125.983 94.3167 123.745 94.3167 120.983V114.317C94.3167 111.555 92.0781 109.317 89.3167 109.317H82.6667ZM82.6667 50.9833C79.9053 50.9833 77.6667 53.2219 77.6667 55.9833V87.65C77.6667 90.4114 79.9053 92.65 82.6667 92.65H89.3333C92.0948 92.65 94.3333 90.4114 94.3333 87.65V55.9833C94.3333 53.2219 92.0948 50.9833 89.3333 50.9833H82.6667Z" fill="#8F8F8F"/>
</svg>
