<svg width="21" height="20" viewBox="0 0 21 20" fill="none" xmlns="http://www.w3.org/2000/svg">
<path d="M15.5303 10.5303C15.8232 10.2374 15.8232 9.76256 15.5303 9.46967L10.7574 4.6967C10.4645 4.40381 9.98959 4.40381 9.6967 4.6967C9.40381 4.98959 9.40381 5.46447 9.6967 5.75736L13.9393 10L9.6967 14.2426C9.40381 14.5355 9.40381 15.0104 9.6967 15.3033C9.98959 15.5962 10.4645 15.5962 10.7574 15.3033L15.5303 10.5303ZM-6.55671e-08 10.75L15 10.75L15 9.25L6.55671e-08 9.25L-6.55671e-08 10.75Z" fill="#213A8B"/>
<rect x="8" width="13" height="20" rx="3" fill="#213A8B"/>
<path d="M16.5303 10.5303C16.8232 10.2374 16.8232 9.76256 16.5303 9.46967L11.7574 4.6967C11.4645 4.40381 10.9896 4.40381 10.6967 4.6967C10.4038 4.98959 10.4038 5.46447 10.6967 5.75736L14.9393 10L10.6967 14.2426C10.4038 14.5355 10.4038 15.0104 10.6967 15.3033C10.9896 15.5962 11.4645 15.5962 11.7574 15.3033L16.5303 10.5303ZM8 10.75L16 10.75L16 9.25L8 9.25L8 10.75Z" fill="white"/>
</svg>
