<svg width="307" height="40" viewBox="0 0 307 40" fill="none" xmlns="http://www.w3.org/2000/svg">
<g clip-path="url(#clip0_11_27)">
<path d="M60.3499 7.69852C64.603 7.69852 68.0485 9.58277 69.502 10.9825L67.0794 13.9435C65.895 12.8668 63.2571 11.4132 60.3499 11.4132C55.0202 11.4132 51.6824 15.074 51.6824 20.0808C51.6824 25.0875 54.8587 28.7483 60.4038 28.7483C63.6339 28.7483 66.4334 27.0256 67.6178 25.8412L69.9327 28.9098C68.4791 30.4172 64.8183 32.463 60.3499 32.463C52.4899 32.463 47.6447 27.1871 47.6447 20.0269C47.6447 12.9744 52.6514 7.69852 60.3499 7.69852Z" fill="#213A8B"/>
<path d="M84.576 7.69852C91.8439 7.69852 97.1198 12.9744 97.1198 20.1346C97.1198 27.2948 91.8439 32.5707 84.576 32.5707C77.3082 32.5707 72.0323 27.2948 72.0323 20.1346C72.0323 12.9744 77.3082 7.69852 84.576 7.69852ZM84.576 28.8022C89.4751 28.8022 93.1359 25.0875 93.1359 20.1346C93.1359 15.1279 89.5289 11.467 84.576 11.467C79.677 11.467 76.0161 15.1817 76.0161 20.1346C76.0161 25.0875 79.677 28.8022 84.576 28.8022Z" fill="#213A8B"/>
<path d="M122.1 25.0875C122.1 28.5868 119.838 31.9785 114.078 31.9785H101.427V8.23688H113.324C118.17 8.23688 120.915 11.1978 120.915 14.5895C120.915 16.4738 120.054 18.1965 117.954 19.5962C120.054 20.2961 122.1 21.8573 122.1 25.0875ZM105.303 11.9515V18.3042L112.84 18.2503C115.532 18.2503 116.931 16.7429 116.931 14.9664C116.931 13.3513 115.747 11.9515 113.378 11.9515H105.303ZM114.293 28.2638C117.039 28.2638 118.116 26.7564 118.116 25.0875C118.116 23.3109 116.878 21.8035 114.401 21.8035H105.357V28.2638H114.293Z" fill="#213A8B"/>
<path d="M137.712 19.7577L148.21 31.9785H143.042L134.266 21.5882H129.744V31.9785H125.814V8.23688H129.744V18.035H134.266L142.826 8.23688H148.048L137.712 19.7577Z" fill="#213A8B"/>
<path d="M160.269 7.69852C167.537 7.69852 172.813 12.9744 172.813 20.1346C172.813 27.2948 167.537 32.5707 160.269 32.5707C153.001 32.5707 147.725 27.2948 147.725 20.1346C147.725 12.9744 153.001 7.69852 160.269 7.69852ZM160.269 28.8022C165.168 28.8022 168.829 25.0875 168.829 20.1346C168.829 15.1279 165.222 11.467 160.269 11.467C155.37 11.467 151.709 15.1817 151.709 20.1346C151.709 25.0875 155.37 28.8022 160.269 28.8022Z" fill="#213A8B"/>
<path d="M199.139 8.23688H202.907V31.9785H198.977V14.3203L191.171 24.7645H188.802L180.996 14.3203V31.9785H177.066V8.23688H180.834L189.987 20.4038L199.139 8.23688Z" fill="#213A8B"/>
<path d="M220.781 17.9273C226.003 17.9273 228.856 20.996 228.856 24.926C228.856 28.856 226.003 31.9785 221.05 31.9785H208.129V8.23688H226.649V11.9515H212.059V17.9273H220.781ZM220.888 28.2638C223.58 28.2638 224.818 26.7564 224.818 24.9798C224.818 23.2032 223.58 21.6958 220.888 21.6958H212.059V28.2638H220.888Z" fill="#213A8B"/>
<path d="M250.552 31.9785L247.968 26.0565H236.716L234.132 31.9785H229.879L240.215 8.23688H244.522L254.859 31.9785H250.552ZM238.277 22.5034H246.46L242.369 13.0283L238.277 22.5034Z" fill="#213A8B"/>
<path d="M275.37 8.23688H279.3V31.9785H275.37V21.8035H261.642V31.9785H257.712V8.23688H261.642V18.0888H275.37V8.23688Z" fill="#213A8B"/>
<path d="M296.42 19.7577L306.972 31.9785H301.75L292.974 21.5882H288.452V31.9785H284.522V8.23688H288.452V18.035H292.974L301.534 8.23688H306.756L296.42 19.7577Z" fill="#213A8B"/>
<path d="M0.646027 20.1346C0.646027 31.0094 9.4751 39.8385 20.4038 39.8385C20.6729 39.8385 20.9421 39.8385 21.2113 39.8385V32.3553H20.4038C13.6205 32.3553 8.18304 26.8641 8.18304 20.1346C8.18304 13.4051 13.6743 7.91386 20.4038 7.91386H21.2113V0.37685C20.9421 0.37685 20.6729 0.37685 20.4038 0.37685C9.4751 0.37685 0.646027 9.20592 0.646027 20.1346Z" fill="#FF4B5F"/>
<path d="M24.3338 0.753701V11.0363H20.4038C15.3432 11.0363 11.3055 15.074 11.3055 20.1346C11.3055 25.1413 15.397 29.2328 20.4038 29.2328H24.3338V39.5155C33.3244 37.6851 40.1077 29.7174 40.1077 20.1884C40.1077 10.5518 33.3244 2.58412 24.3338 0.753701Z" fill="#213A8B"/>
</g>
<defs>
<clipPath id="clip0_11_27">
<rect width="306.487" height="40" fill="white"/>
</clipPath>
</defs>
</svg>
